<svg width="37" height="37" viewBox="0 0 37 37" fill="none" xmlns="http://www.w3.org/2000/svg">
<path id="plant" d="M22.4892 18.2493C21.6984 19.004 20.8645 20.0256 20.1066 21.3957C19.3577 18.6996 18.4138 16.7231 17.4596 15.2761C21.8379 0.689438 0.5 0.166748 0.5 0.166748C0.5 0.166748 1.12288 18.3975 12.2667 17.9789C12.244 16.7582 12.0545 15.5239 11.789 14.3665C11.6154 13.6119 11.4089 12.8923 11.1956 12.2282C10.4831 10.0255 9.6787 8.46191 9.6787 8.46191C10.491 9.55028 11.2104 10.5889 11.8457 11.5652C14.0321 14.9197 15.2256 17.5287 15.7804 18.9067C17.1499 21.8403 18.3797 26.6656 18.3797 34.5512C18.3797 35.4438 19.107 36.1667 19.9988 36.1667C20.8928 36.1667 21.6189 35.4438 21.6189 34.5512C21.6189 31.9954 21.4953 29.7214 21.2718 27.6928C21.788 25.2174 22.5674 23.4604 23.3741 22.2159C23.904 21.2079 24.8808 19.4814 26.1969 17.7187C27.369 16.1507 28.8144 14.5532 30.4493 13.4128C30.4493 13.4128 27.0967 17.1134 26.88 20.7361C36.1403 21.218 36.5 6.69019 36.5 6.69019C36.5 6.69019 19.5529 7.26719 22.4892 18.2493Z" fill="white"/>
</svg>
