<?xml version="1.0" encoding="utf-8"?>
<!-- Uploaded to: SVG Repo, www.svgrepo.com, Generator: SVG Repo Mixer Tools -->
<svg width="800px" height="800px" viewBox="0 0 1024 1024" class="icon"  version="1.1" xmlns="http://www.w3.org/2000/svg"><path d="M732.7 558.4v-17.6c12.9-23.4 20.3-50.2 20.3-78.8 0-89.9-72.9-162.8-162.8-162.8-15.6 0-30.8 2.3-45.1 6.4-29.6-31-71.4-50.4-117.7-50.4-89.9 0-162.8 72.9-162.8 162.8 0 32.8 9.7 63.3 26.4 88.9v51.6c-89.9 0-162.8 72.9-162.8 162.8S201.1 884.1 291 884.1h441.6c89.9 0 162.8-72.9 162.8-162.8 0.1-90-72.8-162.9-162.7-162.9z" fill="#218649" /><path d="M784.5 715.4v-54.5c17.9-2.8 34.8-8 50.2-15.1-0.2 1.7-0.3 3.5-0.3 5.3a44 44 0 0 0 5.9 22.1l-55.8 42.2z m-51.8-157v-17.6c12.9-23.4 20.3-50.2 20.3-78.8 0-30.4-8.4-58.8-22.9-83.2-83.2 9.3-147.5 69.2-147.5 141.7 0 69.8 59.6 128 138.4 140.4V884h11.6c18.1 0 35.5-3 51.7-8.4V751.4l76.9-58.3c7.8 4 16.7 6.3 26.3 6.3 2.1 0 4.2-0.1 6.3-0.3-10.6-79.5-78.7-140.7-161.1-140.7zM288.5 715.4l-55.7-42.3a44 44 0 0 0 5.9-22.1c0-1.8-0.1-3.6-0.3-5.3 15.4 7.1 32.3 12.3 50.2 15.1l-0.1 54.6z m31.7-337.9c-18.2 0-35.7 2.4-52.1 6.8-2.3 10.8-3.5 22-3.5 33.6 0 32.8 9.7 63.3 26.4 88.9v51.6c-42.7 0-81.6 16.5-110.7 43.4 0.3 0.4 0.6 0.7 0.9 1.1-0.7 0.1-1.5 0.1-2.2 0.2-19.3 18.3-34.2 41.4-42.7 67.3 8.2 17.1 27 29 48.9 29 9.6 0 18.5-2.3 26.3-6.3l76.9 58.3v132.5c0.8 0 1.7 0.1 2.5 0.1h60.8V660.9c78.8-12.5 138.4-70.6 138.4-140.4 0.1-79-76-143-169.9-143z" fill="" /><path d="M259.4 580.7v134.7l-83.7-63.5-17.4 22.9 101.1 76.6V884h63.3V580.7z" fill="#D68231" /><path d="M102.8 651.1a53.4 48.3 0 1 0 106.8 0 53.4 48.3 0 1 0-106.8 0Z" fill="#7CDFA8" /><path d="M322.7 580.7v107.1c-10.4 1.4-21 2.2-31.7 2.2s-21.3-0.7-31.7-2.2V580.7h63.4z" fill="" /><path d="M121.1 520.4a170 142.9 0 1 0 340 0 170 142.9 0 1 0-340 0Z" fill="#00AD68" /><path d="M865.5 674.8l-17.4-22.9-83.7 63.5V580.7h-63.3V884h63.3V751.4z" fill="#D68231" /><path d="M814.2 651.1a53.4 48.3 0 1 0 106.8 0 53.4 48.3 0 1 0-106.8 0Z" fill="#7CDFA8" /><path d="M701.1 580.7v107.1c10.4 1.4 21 2.2 31.7 2.2s21.3-0.7 31.7-2.2V580.7h-63.4z" fill="" /><path d="M562.7 520.4a170 142.9 0 1 0 340 0 170 142.9 0 1 0-340 0Z" fill="#00AD68" /><path d="M960.8 897.8c0 4.3-3.5 7.7-7.7 7.7H70.7c-4.3 0-7.7-3.5-7.7-7.7v-27.7c0-4.3 3.5-7.7 7.7-7.7H953c4.3 0 7.7 3.5 7.7 7.7v27.7z" fill="#00AD68" /><path d="M103.9 751.6h251.5v110.8H103.9z" fill="#A4A9AD" /><path d="M103.9 751.6h251.5v44.7H103.9z" fill="" /><path d="M355.5 726.1H103.9c-10.5 0-19.2 8.6-19.2 19.2V758c0 10.5 8.6 19.2 19.2 19.2h251.5v-51.1z" fill="#D1D3D3" /><path d="M282 726.1h73.5v136.3H282z" fill="" /><path d="M125.9 803.1m-6.7 0a6.7 6.7 0 1 0 13.4 0 6.7 6.7 0 1 0-13.4 0Z" fill="" /><path d="M197.1 809.8m-6.7 0a6.7 6.7 0 1 0 13.4 0 6.7 6.7 0 1 0-13.4 0Z" fill="" /><path d="M236.4 830.6m-6.7 0a6.7 6.7 0 1 0 13.4 0 6.7 6.7 0 1 0-13.4 0Z" fill="" /><path d="M264.6 796.4m-6.7 0a6.7 6.7 0 1 0 13.4 0 6.7 6.7 0 1 0-13.4 0Z" fill="" /><path d="M668.3 751.6h251.5v110.8H668.3z" fill="#A4A9AD" /><path d="M668.3 751.6h251.5v44.7H668.3z" fill="" /><path d="M668.3 726.1h251.5c10.5 0 19.2 8.6 19.2 19.2V758c0 10.5-8.6 19.2-19.2 19.2H668.3v-51.1z" fill="#D1D3D3" /><path d="M668.3 726.1h73.5v136.3h-73.5z" fill="" /><path d="M897.8 803.1m-6.7 0a6.7 6.7 0 1 0 13.4 0 6.7 6.7 0 1 0-13.4 0Z" fill="" /><path d="M826.6 809.8m-6.7 0a6.7 6.7 0 1 0 13.4 0 6.7 6.7 0 1 0-13.4 0Z" fill="" /><path d="M787.4 830.6m-6.7 0a6.7 6.7 0 1 0 13.4 0 6.7 6.7 0 1 0-13.4 0Z" fill="" /><path d="M759.1 796.4m-6.7 0a6.7 6.7 0 1 0 13.4 0 6.7 6.7 0 1 0-13.4 0Z" fill="" /><path d="M706.6 862.4H630v-301c0-65.1-53-118.1-118.1-118.1s-118.1 53-118.1 118.1v301h-76.6v-301c0-107.4 87.4-194.7 194.7-194.7S706.6 454 706.6 561.4v301z" fill="#D1D3D3" /><path d="M630 767.3h76.6v-28.7H630v28.7z m0-95.8h76.6v-28.7H630v28.7zM706.1 547h-77c0.6 4.7 0.9 9.5 0.9 14.4v14.4h76.6v-14.4c0-4.8-0.2-9.6-0.5-14.4zM639 414l-54.4 54.4c7.6 5.9 14.4 12.8 20.3 20.3l54.4-54.4c-6.3-7.2-13-14-20.3-20.3z m-274.5 20.3l54.4 54.4c5.9-7.6 12.8-14.4 20.3-20.3L384.8 414c-7.3 6.3-14.1 13-20.3 20.3z m-47.3 237.2h76.6v-28.7h-76.6v28.7z m0 95.8h76.6v-28.7h-76.6v28.7z m180.3-400.1v77c4.7-0.6 9.5-0.9 14.4-0.9s9.7 0.3 14.4 0.9v-77c-4.7-0.3-9.5-0.5-14.4-0.5-4.8 0-9.6 0.2-14.4 0.5zM317.2 561.4v14.4h76.6v-14.4c0-4.9 0.3-9.7 0.9-14.4h-77c-0.4 4.8-0.5 9.6-0.5 14.4z" fill="" /><path d="M162.6 844m-6.7 0a6.7 6.7 0 1 0 13.4 0 6.7 6.7 0 1 0-13.4 0Z" fill="" /><path d="M803.7 208m-91.2 0a91.2 91.2 0 1 0 182.4 0 91.2 91.2 0 1 0-182.4 0Z" fill="#FFB819" /><path d="M559.6 813.1c16.6-16.6 33.1-70.8 30.4-73.6-2.8-2.8-57 13.8-73.6 30.4-16.6 16.6-20.4 39.8-8.5 51.7 11.9 11.9 35 8.1 51.7-8.5z" fill="#7CDFA8" /><path d="M476.3 706.6c-16.6-16.6-33.1-70.8-30.4-73.6 2.8-2.8 57 13.8 73.6 30.4 16.6 16.6 20.4 39.8 8.5 51.7-12 11.9-35.1 8.1-51.7-8.5z" fill="#00AD68" /><path d="M816.7 538.9c16.6-16.6 33.1-70.8 30.4-73.6-2.8-2.8-57 13.8-73.6 30.4-16.6 16.6-20.4 39.8-8.5 51.7 11.9 12 35.1 8.1 51.7-8.5z" fill="#7CDFA8" /><path d="M206.1 556.2c-16.6-16.6-33.1-70.8-30.4-73.6 2.8-2.8 57 13.8 73.6 30.4 16.6 16.6 20.4 39.8 8.5 51.7-11.9 11.9-35 8.1-51.7-8.5z" fill="#218649" /></svg>