<svg width="37" height="18" viewBox="0 0 37 18" fill="none" xmlns="http://www.w3.org/2000/svg">
<g id="ground" clip-path="url(#clip0_729_95)">
<mask id="mask0_729_95" style="mask-type:alpha" maskUnits="userSpaceOnUse" x="2" y="0" width="33" height="26">
<path id="Union" fill-rule="evenodd" clip-rule="evenodd" d="M29.9316 5.23637C28.7202 2.6669 26.1065 0.888672 23.0775 0.888672C21.8874 0.888672 20.7614 1.16317 19.7594 1.6523C19.1946 1.17583 18.4648 0.888672 17.6679 0.888672C16.2498 0.888672 15.0441 1.79815 14.6022 3.06566C13.4977 3.14658 12.4955 3.59598 11.7181 4.29146C11.3751 4.18929 11.0117 4.13443 10.6355 4.13443C9.10519 4.13443 7.7869 5.04217 7.18971 6.34857C4.5526 6.70976 2.521 8.97157 2.521 11.7079C2.521 14.6955 4.94297 17.1175 7.93063 17.1175C8.31781 17.1175 8.69548 17.0768 9.05962 16.9995C9.54363 21.9248 13.6973 25.7729 18.7498 25.7729C23.4016 25.7729 27.2914 22.5111 28.257 18.1499C28.5095 18.1826 28.7669 18.1994 29.0282 18.1994C32.3147 18.1994 34.9788 15.5353 34.9788 12.2488C34.9788 10.3419 34.0818 8.64442 32.6867 7.55541C32.3269 6.31609 31.248 5.38259 29.9316 5.23637Z" fill="white"/>
</mask>
<g mask="url(#mask0_729_95)">
<circle id="Ellipse 11" cx="18" cy="-20" r="35" fill="white"/>
</g>
</g>
<defs>
<clipPath id="clip0_729_95">
<rect width="35.8333" height="16.6667" fill="white" transform="translate(0.5 0.833252)"/>
</clipPath>
</defs>
</svg>
